<mxfile host="app.diagrams.net" modified="2023-10-19T09:15:39.840Z" agent="Mozilla/5.0 (Windows NT 10.0; Win64; x64) AppleWebKit/537.36 (KHTML, like Gecko) Chrome/118.0.0.0 Safari/537.36" version="22.0.5" etag="dCbiBQEL_TIn7CJwM4W0" type="github">
  <diagram name="Page-1" id="lIpNMeHutzqID5LE_iQZ">
    <mxGraphModel>
      <root>
        <mxCell id="0" />
        <mxCell id="1" parent="0" />
      </root>
    </mxGraphModel>
  </diagram>
</mxfile>
